<?xml version="1.0" encoding="utf-8"?>
<!-- Generator: Adobe Illustrator 25.2.1, SVG Export Plug-In . SVG Version: 6.00 Build 0)  -->
<svg version="1.1" id="Layer_1" xmlns="http://www.w3.org/2000/svg" xmlns:xlink="http://www.w3.org/1999/xlink" x="0px" y="0px"
	 viewBox="0 0 375.1 335.1" style="enable-background:new 0 0 375.1 335.1;" xml:space="preserve">
<style type="text/css">
	.st0{fill:#512E82;}
	.st1{fill:#EDBF1C;}
	.st2{fill:#FAFCFD;}
	.st3{fill:#F69697;}
	.st4{fill:#DB8A92;}
</style>
<g>
	<g>
		<path class="st0" d="M191.8,85.1c6.9,10,9.5,22,9.5,22c1.5,7.4,0.8,16.1-0.8,33.3c-0.7,7.2-1.5,14.6-3.1,23.5
			c-2.3,13.3-3.6,20-7.1,22.7c-4.8,3.8-12.3,2.6-27.4,0.4c-5.1-0.8-7.3-1.3-18.6-3.8c-25.7-5.6-26.2-5.2-30.2-6.9
			c0,0-15.1-6-24.6-21c-14.5-23-15.3-64.8,16-86.2C133.8,49.7,172.4,56.9,191.8,85.1z"/>
		<circle class="st1" cx="141.7" cy="120.4" r="38.5"/>
	</g>
	<g>
		<path class="st2" d="M187.4,291.7c-6.9-10-9.5-22-9.5-22c-1.5-7.4-0.8-16.1,0.8-33.3c0.7-7.2,1.5-14.6,3.1-23.5
			c2.3-13.3,3.6-20,7.1-22.7c4.8-3.8,12.3-2.6,27.4-0.4c5.1,0.8,7.3,1.3,18.6,3.8c25.7,5.6,26.2,5.2,30.2,6.9c0,0,15.1,6,24.6,21
			c14.5,23,15.3,64.8-16,86.2C245.4,327.1,206.8,320,187.4,291.7z"/>
		<circle class="st3" cx="237.5" cy="256.4" r="38.5"/>
	</g>
	<g>
		<circle class="st1" cx="128.1" cy="316.6" r="17"/>
		<circle class="st1" cx="172.6" cy="315.1" r="11.5"/>
		<circle class="st1" cx="84.6" cy="316.1" r="11.5"/>
	</g>
	<polygon class="st0" points="323.6,130.6 322.3,23.6 216.6,129.3 	"/>
	<polygon class="st1" points="263.5,67.6 262.7,1 197,66.8 	"/>
	<polygon class="st0" points="173.5,264.2 182.9,197.1 106.6,253.2 	"/>
	<polygon class="st0" points="68.5,335.3 67.7,267.6 0.7,334.5 	"/>
	<g>
		<circle class="st2" cx="268.6" cy="167.8" r="17"/>
		<circle class="st1" cx="313.1" cy="166.3" r="11.5"/>
		<circle class="st1" cx="225.1" cy="167.3" r="11.5"/>
	</g>
	<g>
		<polygon class="st1" points="139.6,223.5 139.2,188.3 104.5,223.1 		"/>
		<polygon class="st4" points="120.8,204.8 120.5,183.7 99.7,204.5 		"/>
	</g>
	<g>
		<polygon class="st3" points="374.8,128.6 374.4,93.4 339.6,128.1 		"/>
		<polygon class="st2" points="355.9,109.8 355.7,88.8 334.9,109.6 		"/>
	</g>
	<circle class="st1" cx="66.8" cy="193.4" r="11.5"/>
</g>
</svg>
